<svg width="35" height="35" viewBox="0 0 35 35" fill="none" xmlns="http://www.w3.org/2000/svg">
<rect width="35" height="35" rx="17.5" fill="#FFC629"/>
<g clip-path="url(#clip0_7984_8928)">
<mask id="mask0_7984_8928" style="mask-type:luminance" maskUnits="userSpaceOnUse" x="5" y="15" width="25" height="5">
<path d="M30 15.3008H5V19.6927H30V15.3008Z" fill="white"/>
</mask>
<g mask="url(#mask0_7984_8928)">
<path d="M7.90359 16.0413H6.42139C6.22759 16.0413 6.07031 15.8843 6.07031 15.6906C6.07031 15.4968 6.2274 15.3398 6.42139 15.3398H7.90359C8.0974 15.3398 8.25466 15.4968 8.25466 15.6906C8.25466 15.8843 8.09757 16.0413 7.90359 16.0413Z" fill="#343333"/>
<path d="M8.97776 17.2093H5.34754C5.1556 17.2093 5 17.0523 5 16.8585C5 16.6648 5.1556 16.5078 5.34754 16.5078H8.97776C9.16971 16.5078 9.32528 16.6648 9.32528 16.8585C9.32528 17.0523 9.16971 17.2093 8.97776 17.2093Z" fill="#343333"/>
<path d="M5.65381 18.3792C5.46205 18.3792 5.30664 18.2222 5.30664 18.0285C5.30664 17.8347 5.46205 17.6777 5.65381 17.6777H8.67057C8.86232 17.6777 9.01773 17.8347 9.01773 18.0285C9.01773 18.2222 8.86232 18.3792 8.67057 18.3792H5.65381Z" fill="#343333"/>
<path d="M7.7394 19.5471H6.5874C6.3936 19.5471 6.23633 19.3902 6.23633 19.1964C6.23633 19.0027 6.39342 18.8457 6.5874 18.8457H7.7394C7.93321 18.8457 8.09048 19.0027 8.09048 19.1964C8.09048 19.3902 7.93338 19.5471 7.7394 19.5471Z" fill="#343333"/>
<path d="M27.5129 17.8351C27.5423 17.3706 27.9138 17.0707 28.468 17.0707C28.9929 17.0707 29.3641 17.3706 29.3641 17.7998C29.3641 17.8175 29.3524 17.8351 29.3228 17.8351H27.5129ZM28.5092 19.6875C29.0575 19.6875 29.535 19.464 29.8122 19.076C29.8536 19.0173 29.877 18.9524 29.877 18.8878C29.877 18.7408 29.7651 18.6349 29.6177 18.6349C29.5234 18.6349 29.4467 18.6761 29.3465 18.7819C29.1048 19.0405 28.8512 19.1582 28.5269 19.1582C27.9373 19.1582 27.5364 18.8172 27.5069 18.2937H29.9005C29.9653 18.2937 30.0007 18.2584 30.0007 18.1997V18.135C30.0007 17.1824 29.3934 16.5591 28.4619 16.5591C27.5304 16.5591 26.8642 17.1883 26.8642 18.135C26.8642 19.0818 27.5127 19.6875 28.509 19.6875H28.5092ZM26.2335 19.6875C26.4222 19.6875 26.5579 19.5463 26.5579 19.3583V15.63C26.5579 15.4418 26.4163 15.3008 26.2335 15.3008C26.0508 15.3008 25.9092 15.442 25.9092 15.63V19.3583C25.9092 19.5465 26.0508 19.6875 26.2335 19.6875ZM22.6195 19.6875C22.8022 19.6875 22.9319 19.5463 22.9319 19.3583V19.17C23.1324 19.4993 23.5273 19.6875 24.0227 19.6875C24.9602 19.6875 25.6027 19.0466 25.6027 18.1116C25.6027 17.1766 24.9659 16.5591 24.0758 16.5591C23.5746 16.5591 23.1383 16.7708 22.9498 17.1119V15.63C22.9498 15.4418 22.8082 15.3008 22.6254 15.3008C22.4427 15.3008 22.3011 15.442 22.3011 15.63V19.3583C22.3011 19.5465 22.4367 19.6875 22.6195 19.6875ZM23.9342 19.1583C23.2974 19.1583 22.9202 18.7761 22.9202 18.1233C22.9202 17.4706 23.2974 17.0883 23.9342 17.0883C24.571 17.0883 24.9542 17.4706 24.9542 18.1233C24.9542 18.7761 24.5769 19.1583 23.9342 19.1583ZM15.1201 19.6875C15.5504 19.6875 15.9219 19.4993 16.0987 19.1994V19.3581C16.0987 19.5463 16.2403 19.6874 16.4231 19.6874C16.6058 19.6874 16.7474 19.5461 16.7474 19.3581V16.9824C16.7474 16.7942 16.6058 16.6532 16.4231 16.6532C16.2403 16.6532 16.0987 16.7944 16.0987 16.9824V18.4054C16.0987 18.9112 15.8275 19.1875 15.3323 19.1875C14.8371 19.1875 14.5599 18.9112 14.5599 18.4054V16.9824C14.5599 16.7942 14.4183 16.6532 14.2355 16.6532C14.0528 16.6532 13.9112 16.7944 13.9112 16.9824V18.4407C13.9112 19.2404 14.3415 19.6874 15.1197 19.6874L15.1201 19.6875ZM10.8635 17.0296V15.8946C10.8635 15.8711 10.8871 15.8476 10.9106 15.8476H12.1722C12.5791 15.8476 12.8208 16.0652 12.8208 16.4357C12.8208 16.8063 12.5791 17.0296 12.1722 17.0296H10.8635ZM10.3034 19.5935H12.2255C13.0745 19.5935 13.6051 19.1113 13.6051 18.3469C13.6051 17.7471 13.328 17.4061 12.7501 17.3002C13.2099 17.2061 13.4752 16.8709 13.4752 16.3887C13.4752 15.7243 12.98 15.3008 12.2076 15.3008H10.3032C10.2501 15.3008 10.209 15.342 10.209 15.3948V19.4993C10.209 19.5523 10.2503 19.5933 10.3032 19.5933L10.3034 19.5935ZM10.8635 18.9937V17.5941H12.1959C12.6616 17.5941 12.9446 17.8704 12.9446 18.3173C12.9446 18.7642 12.6616 19.0405 12.1959 19.0405H10.9106C10.8869 19.0405 10.8635 19.0169 10.8635 18.9935V18.9937ZM17.449 19.6875C17.6378 19.6875 17.7734 19.5463 17.7734 19.3583V17.8411C17.7734 17.3589 18.0504 17.059 18.5044 17.059C18.9584 17.059 19.2001 17.3472 19.2001 17.8411V19.3583C19.2001 19.5465 19.3417 19.6875 19.5244 19.6875C19.7072 19.6875 19.8488 19.5463 19.8488 19.3583V17.8411C19.8488 17.3589 20.1258 17.059 20.5798 17.059C21.0338 17.059 21.2755 17.3472 21.2755 17.8411V19.3583C21.2755 19.5465 21.4171 19.6875 21.5998 19.6875C21.7826 19.6875 21.9242 19.5463 21.9242 19.3583V17.8058C21.9242 17.0237 21.4879 16.5591 20.7568 16.5591C20.2734 16.5591 19.9138 16.765 19.7191 17.1472C19.5246 16.7533 19.1943 16.5591 18.711 16.5591C18.269 16.5591 17.9506 16.7238 17.7736 17.0473V16.9826C17.7736 16.7944 17.632 16.6533 17.4492 16.6533C17.2665 16.6533 17.1249 16.7946 17.1249 16.9826V19.3583C17.1249 19.5465 17.2665 19.6875 17.4492 19.6875H17.449Z" fill="#343333"/>
</g>
</g>
<defs>
<clipPath id="clip0_7984_8928">
<rect width="25" height="4.39189" fill="white" transform="translate(5 15.3008)"/>
</clipPath>
</defs>
</svg>
