<svg width="37" height="29" viewBox="0 0 37 29" fill="none" xmlns="http://www.w3.org/2000/svg">
<path fill-rule="evenodd" clip-rule="evenodd" d="M23.0566 14.9277C24.4433 16.0101 26.151 16.5997 27.9101 16.6035C28.9432 16.6059 29.9646 16.3791 30.8994 15.9395V23.7188C30.9913 24.3631 30.9314 25.0202 30.7255 25.6377C30.5197 26.2551 30.1731 26.8161 29.7128 27.2764C29.2526 27.7366 28.6916 28.0832 28.0742 28.2891C27.4567 28.4949 26.7996 28.5548 26.1552 28.4629H21.9335C21.8077 28.4629 21.6866 28.4132 21.5976 28.3242C21.5086 28.2353 21.4589 28.1141 21.4589 27.9883V23.1211C21.4775 22.3501 21.2259 21.5967 20.747 20.9922C20.2682 20.3877 19.5926 19.9699 18.8378 19.8115C18.3837 19.7341 17.9172 19.7571 17.4726 19.8779C17.0282 19.9988 16.615 20.2152 16.2627 20.5117C15.9104 20.8083 15.6265 21.1784 15.4316 21.5957C15.2368 22.013 15.135 22.4682 15.1337 22.9287V27.9883C15.1337 28.1141 15.084 28.2353 14.9951 28.3242C14.9062 28.4129 14.7857 28.4628 14.6601 28.4629H10.3427C9.69843 28.5548 9.04119 28.4949 8.42378 28.2891C7.80649 28.0832 7.24525 27.7365 6.78511 27.2764C6.32497 26.8162 5.97827 26.2551 5.77242 25.6377C5.56655 25.0202 5.50763 24.3631 5.59956 23.7188V15.9395C6.53928 16.3807 7.56534 16.6076 8.60347 16.6035C10.3628 16.5998 12.0711 16.0103 13.458 14.9277C14.822 16.0128 16.5138 16.6035 18.2568 16.6035C20 16.6035 21.6924 16.013 23.0566 14.9277ZM25.3652 0C29.3178 9.11803e-05 29.9236 1.29685 30.583 3.22266L32.2207 8.08203C32.5832 9.07793 32.5924 10.1679 32.247 11.1699C31.9016 12.172 31.2225 13.0249 30.3232 13.5859C29.5846 14.0112 28.7468 14.2342 27.8945 14.2314C26.8668 14.2421 25.8589 13.9476 24.999 13.3848C24.139 12.8218 23.4657 12.0156 23.0644 11.0693C22.6579 12.0085 21.9852 12.8082 21.1298 13.3701C20.2743 13.932 19.2725 14.2314 18.249 14.2314C17.2255 14.2314 16.2245 13.932 15.3691 13.3701C14.5137 12.8083 13.8411 12.0085 13.4345 11.0693C13.0332 12.0156 12.3599 12.8218 11.5 13.3848C10.6399 13.9478 9.63139 14.2422 8.60347 14.2314C7.75177 14.2339 6.91479 14.011 6.17671 13.5859C5.27743 13.0249 4.59734 12.172 4.25191 11.1699C3.90667 10.168 3.91678 9.07783 4.27925 8.08203L5.92378 3.22266C6.57522 1.29687 7.18084 0 11.1337 0H25.3652Z" fill="#D7A22A"/>
</svg>
